# xmcd CD database file
#
# Track frame offsets:
#	183
#	13543
#	26050
#	38468
#	49788
#	61218
#	73925
#	85603
#	98338
#	110983
#	122970
#	135220
#	147673
#	159365
#	172393
#	183703
#
# Disc length: 2592 seconds
#
# Revision: 0
# Processed by: cddbd v1.5.1PL0 Copyright (c) Steve Scherf et al.
# Submitted via: CDex 1.50
#
DISCID=de0a1e10
DTITLE=Champion Jack Dupree - Black Woman Swing
DYEAR=1900
DGENRE=Blues
TTITLE0=Cabbage Greens
TTITLE1=Gambling Man Blues
TTITLE2=Morning Tea
TTITLE3=Chain Gang Blues
TTITLE4=Big Time Mama
TTITLE5=Warehouse Man Blues
TTITLE6=Jackie P. Blues
TTITLE7=Black Woman Swing
TTITLE8=Dupree Shake Dance
TTITLE9=Junker's Blues
TTITLE10=All Alone Blues
TTITLE11=Angola Blues
TTITLE12=Bad Health Blues
TTITLE13=Weed Head Woman
TTITLE14=Heavy Heart Blues
TTITLE15=Cabbage Greens
EXTD=
EXTT0=
EXTT1=
EXTT2=
EXTT3=
EXTT4=
EXTT5=
EXTT6=
EXTT7=
EXTT8=
EXTT9=
EXTT10=
EXTT11=
EXTT12=
EXTT13=
EXTT14=
EXTT15=
PLAYORDER=
